<svg xmlns="http://www.w3.org/2000/svg" width="24" height="24" viewBox="0 0 24 24"><title>sync_trash_fill</title><rect width="24" height="24" fill="none"/><path d="M17.5,6H15V5.5A1.5,1.5,0,0,0,13.5,4h-3A1.5,1.5,0,0,0,9,5.5V6H6.5a.5.5,0,0,0-.5.5V8a.5.5,0,0,0,.5.5h11A.5.5,0,0,0,18,8V6.5A.5.5,0,0,0,17.5,6ZM14,6H10V5.5a.5.5,0,0,1,.5-.5h3a.5.5,0,0,1,.5.5ZM7,18a1,1,0,0,0,1,1h8a1,1,0,0,0,1-1V9H7Zm7-6.5a.5.5,0,0,1,1,0v5a.5.5,0,0,1-1,0Zm-2.5,0a.5.5,0,0,1,1,0v5a.5.5,0,0,1-1,0ZM9,11.5a.5.5,0,0,1,1,0v5a.5.5,0,0,1-1,0Z"/></svg>